<svg id="Layer_1" data-name="Layer 1" xmlns="http://www.w3.org/2000/svg" viewBox="0 0 16 16"><defs><style>.cls-1{fill:#14b8a6;}.cls-2{fill:#fff;}</style></defs><title>Artboard 1</title><path class="cls-1" d="M8,15c4.42,0,8-3.13,8-7S12.42,1,8,1,0,4.13,0,8a6.48,6.48,0,0,0,2,4.6,11,11,0,0,1-.77,3,.26.26,0,0,0,.27.36,14.31,14.31,0,0,0,4.18-1.24A8.92,8.92,0,0,0,8,15Z"/><path class="cls-2" d="M10.83,4.51a.92.92,0,0,1,1.83,0v6.68a.92.92,0,1,1-1.83,0Zm-.6.44A12.55,12.55,0,0,1,6,6V9.75l.67.05a10.5,10.5,0,0,1,3.59.95ZM5.37,9.72V6L4.15,6A1.23,1.23,0,0,0,2.94,7.25V8.46A1.22,1.22,0,0,0,4.15,9.68h.3C4.76,9.69,5.06,9.7,5.37,9.72Zm.84.65.52.05.15,1a.61.61,0,0,1-.48.71H6a.62.62,0,0,1-.56-.37L4.6,10.3l1,0Z"/></svg>